<?xml version="1.0" encoding="UTF-8" standalone="no"?>
<!-- Created with Inkscape (http://www.inkscape.org/) -->

<svg
   width="23.167578mm"
   height="21.493259mm"
   viewBox="0 0 23.167578 21.493259"
   version="1.1"
   id="svg1"
   xmlns="http://www.w3.org/2000/svg"
   xmlns:svg="http://www.w3.org/2000/svg">
  <defs
     id="defs1" />
  <g
     id="layer1"
     transform="translate(-33.150845,-149.55763)">
    <path
       d="m 49.732779,159.4671 2.220019,-2.38125 q 2.207617,-2.35645 2.207617,-2.34404 -0.483691,-0.40928 -0.483691,-1.0418 0,-0.55811 0.384473,-0.94258 0.384472,-0.38447 0.930175,-0.38447 0.558106,0 0.942578,0.38447 0.384473,0.38447 0.384473,0.94258 0,0.5457 -0.384473,0.93018 -0.384472,0.38447 -0.942578,0.38447 h -0.148828 l -3.249414,7.75146 v 5.94073 q 0,0.99218 -2.195215,1.66191 -2.195214,0.68213 -4.663281,0.68213 -2.480469,0 -4.675683,-0.68213 -2.182813,-0.66973 -2.182813,-1.66191 v -5.94073 l -3.249414,-7.75146 h -0.148828 q -0.558105,0 -0.942578,-0.38447 -0.384473,-0.38448 -0.384473,-0.93018 0,-0.55811 0.384473,-0.94258 0.384473,-0.38447 0.942578,-0.38447 0.545703,0 0.930176,0.38447 0.384472,0.38447 0.384472,0.94258 0,0.64492 -0.483691,1.01699 l 4.415234,4.7501 -0.37207,-6.44922 q -0.533301,0 -0.917773,-0.38447 -0.384473,-0.39688 -0.384473,-0.94258 0,-0.55811 0.384473,-0.93018 0.384472,-0.38447 0.942578,-0.38447 0.545703,0 0.930176,0.38447 0.384472,0.38448 0.384472,0.93018 0,0.70693 -0.607715,1.11621 l 2.877344,5.8167 1.389063,-6.47402 q -0.942579,-0.29766 -0.942579,-1.26504 0,-0.55811 0.384473,-0.94258 0.384473,-0.38447 0.942578,-0.38447 0.545703,0 0.930176,0.38447 0.384473,0.38447 0.384473,0.94258 0,0.96738 -0.930176,1.26504 l 1.389062,6.47402 2.877344,-5.8167 q -0.607715,-0.37207 -0.607715,-1.11621 0,-0.5457 0.384473,-0.93018 0.384473,-0.38447 0.930176,-0.38447 0.545703,0 0.930175,0.38447 0.396875,0.38448 0.396875,0.93018 0,0.5457 -0.384472,0.94258 -0.384473,0.38447 -0.917774,0.38447 z m -4.998145,-7.97471 q 0.248047,0 0.42168,-0.18603 0.186035,-0.18604 0.186035,-0.42168 0,-0.24805 -0.186035,-0.43408 -0.173633,-0.18604 -0.42168,-0.18604 -0.248047,0 -0.434082,0.18604 -0.173633,0.18603 -0.173633,0.43408 0,0.23564 0.173633,0.42168 0.186035,0.18603 0.434082,0.18603 z m 5.357813,0.80615 q 0.248047,0 0.421679,-0.17363 0.186035,-0.18603 0.186035,-0.43408 0,-0.24805 -0.186035,-0.42168 -0.173632,-0.18604 -0.421679,-0.18604 -0.248047,0 -0.434082,0.18604 -0.173633,0.17363 -0.173633,0.42168 0,0.24805 0.173633,0.43408 0.186035,0.17363 0.434082,0.17363 z m -10.715625,0 q 0.248047,0 0.421679,-0.17363 0.186036,-0.18603 0.186036,-0.43408 0,-0.24805 -0.186036,-0.42168 -0.173632,-0.18604 -0.421679,-0.18604 -0.248047,0 -0.434082,0.18604 -0.173633,0.17363 -0.173633,0.42168 0,0.24805 0.173633,0.43408 0.186035,0.17363 0.434082,0.17363 z m 15.61455,2.00918 q 0.248047,0 0.42168,-0.17363 0.186035,-0.18603 0.186035,-0.43408 0,-0.24805 -0.186035,-0.42168 -0.173633,-0.18604 -0.42168,-0.18604 -0.248047,0 -0.434082,0.18604 -0.173632,0.17363 -0.173632,0.42168 0,0.24805 0.173632,0.43408 0.186035,0.17363 0.434082,0.17363 z m -20.513476,0 q 0.235645,0 0.42168,-0.17363 0.186035,-0.18603 0.186035,-0.43408 0,-0.24805 -0.186035,-0.42168 -0.186035,-0.18604 -0.42168,-0.18604 -0.248047,0 -0.434082,0.18604 -0.186035,0.17363 -0.186035,0.42168 0,0.24805 0.186035,0.43408 0.186035,0.17363 0.434082,0.17363 z m 16.408301,9.93428 v -1.0418 q -2.158008,-1.50068 -6.151563,-1.50068 -3.993554,0 -6.151562,1.50068 v 1.0418 q 0.632519,-0.83096 2.33164,-1.32705 1.711524,-0.5085 3.819922,-0.5085 2.108399,0 3.80752,0.5085 1.711523,0.49609 2.344043,1.32705 z m -4.576465,-0.21084 -1.575098,-0.99219 -1.575097,0.99219 1.575097,1.11621 z m 4.576465,2.66651 v -2.0836 l -0.967383,0.59531 z m -11.335742,-1.48829 -0.967383,-0.59531 v 2.0836 z m 11.335742,2.84014 v -0.79375 q -2.530078,-1.38906 -6.151563,-1.38906 -3.621484,0 -6.151562,1.38906 v 0.79375 q 1.091406,-0.66973 2.765722,-1.0666 1.686719,-0.40928 3.38584,-0.40928 1.686719,0 3.361035,0.40928 1.686719,0.39687 2.790528,1.0666 z"
       id="text10"
       style="font-size:25.4px;font-family:Arial;-inkscape-font-specification:'Arial, Normal';stroke-width:0.264583"
       aria-label="♛" />
  </g>
</svg>
